<mxfile host="Electron" modified="2024-04-29T06:17:30.740Z" agent="Mozilla/5.0 (Macintosh; Intel Mac OS X 10_15_7) AppleWebKit/537.36 (KHTML, like Gecko) draw.io/24.2.5 Chrome/120.0.6099.109 Electron/28.1.0 Safari/537.36" etag="2yLGXaQ15tqT7n-z3W_B" version="24.2.5" type="device">
  <diagram name="第 1 页" id="uKlGg8P8eyeJLwApAIIl">
    <mxGraphModel dx="1434" dy="907" grid="1" gridSize="10" guides="1" tooltips="1" connect="1" arrows="1" fold="1" page="1" pageScale="1" pageWidth="827" pageHeight="1169" math="0" shadow="0">
      <root>
        <mxCell id="0" />
        <mxCell id="1" parent="0" />
        <mxCell id="6PqzBiFGWo0K5L1rPENs-62" value="" style="endArrow=none;dashed=1;html=1;dashPattern=1 3;strokeWidth=2;rounded=0;" parent="1" edge="1">
          <mxGeometry width="50" height="50" relative="1" as="geometry">
            <mxPoint x="460" y="350" as="sourcePoint" />
            <mxPoint x="700" y="640" as="targetPoint" />
          </mxGeometry>
        </mxCell>
        <mxCell id="6PqzBiFGWo0K5L1rPENs-93" value="" style="endArrow=none;dashed=1;html=1;dashPattern=1 3;strokeWidth=2;rounded=0;" parent="1" edge="1">
          <mxGeometry width="50" height="50" relative="1" as="geometry">
            <mxPoint x="950" y="350" as="sourcePoint" />
            <mxPoint x="1200" y="640" as="targetPoint" />
          </mxGeometry>
        </mxCell>
        <mxCell id="6PqzBiFGWo0K5L1rPENs-4" style="rounded=0;orthogonalLoop=1;jettySize=auto;html=1;strokeColor=#000000;strokeWidth=3;" parent="1" source="6PqzBiFGWo0K5L1rPENs-5" target="6PqzBiFGWo0K5L1rPENs-6" edge="1">
          <mxGeometry relative="1" as="geometry" />
        </mxCell>
        <mxCell id="6PqzBiFGWo0K5L1rPENs-5" value="4" style="ellipse;whiteSpace=wrap;html=1;aspect=fixed;fontSize=24;" parent="1" vertex="1">
          <mxGeometry x="610" y="40" width="60" height="60" as="geometry" />
        </mxCell>
        <mxCell id="6PqzBiFGWo0K5L1rPENs-6" value="&lt;font&gt;x&lt;/font&gt;" style="ellipse;whiteSpace=wrap;html=1;aspect=fixed;fontSize=24;fontColor=#FF0000;" parent="1" vertex="1">
          <mxGeometry x="560" y="130" width="60" height="60" as="geometry" />
        </mxCell>
        <mxCell id="6PqzBiFGWo0K5L1rPENs-7" value="&lt;font color=&quot;#000000&quot;&gt;x&lt;/font&gt;" style="ellipse;whiteSpace=wrap;html=1;aspect=fixed;fontSize=24;fontColor=#FF0000;" parent="1" vertex="1">
          <mxGeometry x="660" y="130" width="60" height="60" as="geometry" />
        </mxCell>
        <mxCell id="6PqzBiFGWo0K5L1rPENs-8" style="rounded=0;orthogonalLoop=1;jettySize=auto;html=1;strokeColor=#000000;strokeWidth=3;" parent="1" source="6PqzBiFGWo0K5L1rPENs-5" target="6PqzBiFGWo0K5L1rPENs-7" edge="1">
          <mxGeometry relative="1" as="geometry">
            <mxPoint x="635" y="106" as="sourcePoint" />
            <mxPoint x="605" y="154" as="targetPoint" />
          </mxGeometry>
        </mxCell>
        <mxCell id="6PqzBiFGWo0K5L1rPENs-9" style="rounded=0;orthogonalLoop=1;jettySize=auto;html=1;strokeColor=#000000;strokeWidth=3;" parent="1" source="6PqzBiFGWo0K5L1rPENs-10" target="6PqzBiFGWo0K5L1rPENs-11" edge="1">
          <mxGeometry relative="1" as="geometry" />
        </mxCell>
        <mxCell id="6PqzBiFGWo0K5L1rPENs-10" value="4" style="ellipse;whiteSpace=wrap;html=1;aspect=fixed;fontSize=24;" parent="1" vertex="1">
          <mxGeometry x="410" y="40" width="60" height="60" as="geometry" />
        </mxCell>
        <mxCell id="6PqzBiFGWo0K5L1rPENs-11" value="&lt;font&gt;3&lt;/font&gt;" style="ellipse;whiteSpace=wrap;html=1;aspect=fixed;fontSize=24;fontColor=#FF0000;" parent="1" vertex="1">
          <mxGeometry x="360" y="125" width="60" height="60" as="geometry" />
        </mxCell>
        <mxCell id="6PqzBiFGWo0K5L1rPENs-12" value="&lt;font color=&quot;#000000&quot;&gt;x&lt;/font&gt;" style="ellipse;whiteSpace=wrap;html=1;aspect=fixed;fontSize=24;fontColor=#FF0000;" parent="1" vertex="1">
          <mxGeometry x="460" y="125" width="60" height="60" as="geometry" />
        </mxCell>
        <mxCell id="6PqzBiFGWo0K5L1rPENs-13" style="rounded=0;orthogonalLoop=1;jettySize=auto;html=1;strokeColor=#000000;strokeWidth=3;" parent="1" source="6PqzBiFGWo0K5L1rPENs-10" target="6PqzBiFGWo0K5L1rPENs-12" edge="1">
          <mxGeometry relative="1" as="geometry">
            <mxPoint x="435" y="106" as="sourcePoint" />
            <mxPoint x="405" y="154" as="targetPoint" />
          </mxGeometry>
        </mxCell>
        <mxCell id="6PqzBiFGWo0K5L1rPENs-14" value="" style="shape=flexArrow;endArrow=classic;html=1;rounded=0;" parent="1" edge="1">
          <mxGeometry width="50" height="50" relative="1" as="geometry">
            <mxPoint x="510" y="109.5" as="sourcePoint" />
            <mxPoint x="590" y="109.5" as="targetPoint" />
          </mxGeometry>
        </mxCell>
        <mxCell id="6PqzBiFGWo0K5L1rPENs-17" value="No Subtrees" style="text;html=1;strokeColor=none;fillColor=none;align=center;verticalAlign=middle;whiteSpace=wrap;rounded=0;fontSize=24;" parent="1" vertex="1">
          <mxGeometry x="240" y="40" width="150" height="30" as="geometry" />
        </mxCell>
        <mxCell id="6PqzBiFGWo0K5L1rPENs-18" style="rounded=0;orthogonalLoop=1;jettySize=auto;html=1;strokeColor=#000000;strokeWidth=3;fontColor=#000000;" parent="1" source="6PqzBiFGWo0K5L1rPENs-11" target="6PqzBiFGWo0K5L1rPENs-19" edge="1">
          <mxGeometry relative="1" as="geometry">
            <mxPoint x="365" y="200" as="sourcePoint" />
          </mxGeometry>
        </mxCell>
        <mxCell id="6PqzBiFGWo0K5L1rPENs-19" value="&lt;font&gt;x&lt;/font&gt;" style="ellipse;whiteSpace=wrap;html=1;aspect=fixed;fontSize=24;fontColor=#000000;strokeColor=#000000;" parent="1" vertex="1">
          <mxGeometry x="320" y="210" width="60" height="60" as="geometry" />
        </mxCell>
        <mxCell id="6PqzBiFGWo0K5L1rPENs-20" value="&lt;font&gt;x&lt;/font&gt;" style="ellipse;whiteSpace=wrap;html=1;aspect=fixed;fontSize=24;fontColor=#000000;strokeColor=#000000;" parent="1" vertex="1">
          <mxGeometry x="400" y="210" width="60" height="60" as="geometry" />
        </mxCell>
        <mxCell id="6PqzBiFGWo0K5L1rPENs-21" style="rounded=0;orthogonalLoop=1;jettySize=auto;html=1;strokeColor=#000000;strokeWidth=3;fontColor=#000000;" parent="1" source="6PqzBiFGWo0K5L1rPENs-11" target="6PqzBiFGWo0K5L1rPENs-20" edge="1">
          <mxGeometry relative="1" as="geometry">
            <mxPoint x="395" y="200" as="sourcePoint" />
            <mxPoint x="345" y="258" as="targetPoint" />
          </mxGeometry>
        </mxCell>
        <mxCell id="6PqzBiFGWo0K5L1rPENs-22" style="rounded=0;orthogonalLoop=1;jettySize=auto;html=1;strokeColor=#000000;strokeWidth=3;" parent="1" source="6PqzBiFGWo0K5L1rPENs-23" target="6PqzBiFGWo0K5L1rPENs-24" edge="1">
          <mxGeometry relative="1" as="geometry" />
        </mxCell>
        <mxCell id="6PqzBiFGWo0K5L1rPENs-23" value="3" style="ellipse;whiteSpace=wrap;html=1;aspect=fixed;fontSize=24;" parent="1" vertex="1">
          <mxGeometry x="1090" y="40" width="60" height="60" as="geometry" />
        </mxCell>
        <mxCell id="6PqzBiFGWo0K5L1rPENs-24" value="&lt;font color=&quot;#000000&quot;&gt;x&lt;/font&gt;" style="ellipse;whiteSpace=wrap;html=1;aspect=fixed;fontSize=24;fontColor=#FF0000;" parent="1" vertex="1">
          <mxGeometry x="1040" y="130" width="60" height="60" as="geometry" />
        </mxCell>
        <mxCell id="6PqzBiFGWo0K5L1rPENs-25" value="&lt;font color=&quot;#000000&quot;&gt;x&lt;/font&gt;" style="ellipse;whiteSpace=wrap;html=1;aspect=fixed;fontSize=24;fontColor=#FF0000;" parent="1" vertex="1">
          <mxGeometry x="1140" y="130" width="60" height="60" as="geometry" />
        </mxCell>
        <mxCell id="6PqzBiFGWo0K5L1rPENs-26" style="rounded=0;orthogonalLoop=1;jettySize=auto;html=1;strokeColor=#000000;strokeWidth=3;" parent="1" source="6PqzBiFGWo0K5L1rPENs-23" target="6PqzBiFGWo0K5L1rPENs-25" edge="1">
          <mxGeometry relative="1" as="geometry">
            <mxPoint x="1115" y="106" as="sourcePoint" />
            <mxPoint x="1085" y="154" as="targetPoint" />
          </mxGeometry>
        </mxCell>
        <mxCell id="6PqzBiFGWo0K5L1rPENs-27" style="rounded=0;orthogonalLoop=1;jettySize=auto;html=1;strokeColor=#000000;strokeWidth=3;" parent="1" source="6PqzBiFGWo0K5L1rPENs-28" target="6PqzBiFGWo0K5L1rPENs-29" edge="1">
          <mxGeometry relative="1" as="geometry" />
        </mxCell>
        <mxCell id="6PqzBiFGWo0K5L1rPENs-28" value="4" style="ellipse;whiteSpace=wrap;html=1;aspect=fixed;fontSize=24;fontColor=#FF0000;" parent="1" vertex="1">
          <mxGeometry x="890" y="40" width="60" height="60" as="geometry" />
        </mxCell>
        <mxCell id="6PqzBiFGWo0K5L1rPENs-29" value="&lt;font&gt;3&lt;/font&gt;" style="ellipse;whiteSpace=wrap;html=1;aspect=fixed;fontSize=24;fontColor=#000000;strokeColor=#000000;" parent="1" vertex="1">
          <mxGeometry x="840" y="125" width="60" height="60" as="geometry" />
        </mxCell>
        <mxCell id="6PqzBiFGWo0K5L1rPENs-30" value="&lt;font color=&quot;#000000&quot;&gt;x&lt;/font&gt;" style="ellipse;whiteSpace=wrap;html=1;aspect=fixed;fontSize=24;fontColor=#FF0000;" parent="1" vertex="1">
          <mxGeometry x="940" y="125" width="60" height="60" as="geometry" />
        </mxCell>
        <mxCell id="6PqzBiFGWo0K5L1rPENs-31" style="rounded=0;orthogonalLoop=1;jettySize=auto;html=1;strokeColor=#000000;strokeWidth=3;" parent="1" source="6PqzBiFGWo0K5L1rPENs-28" target="6PqzBiFGWo0K5L1rPENs-30" edge="1">
          <mxGeometry relative="1" as="geometry">
            <mxPoint x="915" y="106" as="sourcePoint" />
            <mxPoint x="885" y="154" as="targetPoint" />
          </mxGeometry>
        </mxCell>
        <mxCell id="6PqzBiFGWo0K5L1rPENs-32" value="" style="shape=flexArrow;endArrow=classic;html=1;rounded=0;" parent="1" edge="1">
          <mxGeometry width="50" height="50" relative="1" as="geometry">
            <mxPoint x="990" y="109.5" as="sourcePoint" />
            <mxPoint x="1070" y="109.5" as="targetPoint" />
          </mxGeometry>
        </mxCell>
        <mxCell id="6PqzBiFGWo0K5L1rPENs-33" value="One Subtree" style="text;html=1;strokeColor=none;fillColor=none;align=center;verticalAlign=middle;whiteSpace=wrap;rounded=0;fontSize=24;" parent="1" vertex="1">
          <mxGeometry x="730" y="40" width="140" height="30" as="geometry" />
        </mxCell>
        <mxCell id="6PqzBiFGWo0K5L1rPENs-34" style="rounded=0;orthogonalLoop=1;jettySize=auto;html=1;strokeColor=#000000;strokeWidth=3;fontColor=#000000;" parent="1" source="6PqzBiFGWo0K5L1rPENs-29" target="6PqzBiFGWo0K5L1rPENs-35" edge="1">
          <mxGeometry relative="1" as="geometry">
            <mxPoint x="845" y="200" as="sourcePoint" />
          </mxGeometry>
        </mxCell>
        <mxCell id="6PqzBiFGWo0K5L1rPENs-35" value="&lt;font&gt;x&lt;/font&gt;" style="ellipse;whiteSpace=wrap;html=1;aspect=fixed;fontSize=24;fontColor=#000000;strokeColor=#000000;" parent="1" vertex="1">
          <mxGeometry x="800" y="210" width="60" height="60" as="geometry" />
        </mxCell>
        <mxCell id="6PqzBiFGWo0K5L1rPENs-36" value="&lt;font&gt;x&lt;/font&gt;" style="ellipse;whiteSpace=wrap;html=1;aspect=fixed;fontSize=24;fontColor=#000000;strokeColor=#000000;" parent="1" vertex="1">
          <mxGeometry x="880" y="210" width="60" height="60" as="geometry" />
        </mxCell>
        <mxCell id="6PqzBiFGWo0K5L1rPENs-37" style="rounded=0;orthogonalLoop=1;jettySize=auto;html=1;strokeColor=#000000;strokeWidth=3;fontColor=#000000;" parent="1" source="6PqzBiFGWo0K5L1rPENs-29" target="6PqzBiFGWo0K5L1rPENs-36" edge="1">
          <mxGeometry relative="1" as="geometry">
            <mxPoint x="875" y="200" as="sourcePoint" />
            <mxPoint x="825" y="258" as="targetPoint" />
          </mxGeometry>
        </mxCell>
        <mxCell id="6PqzBiFGWo0K5L1rPENs-38" style="rounded=0;orthogonalLoop=1;jettySize=auto;html=1;strokeWidth=3;fontSize=24;" parent="1" source="6PqzBiFGWo0K5L1rPENs-40" target="6PqzBiFGWo0K5L1rPENs-43" edge="1">
          <mxGeometry relative="1" as="geometry" />
        </mxCell>
        <mxCell id="6PqzBiFGWo0K5L1rPENs-39" style="rounded=0;orthogonalLoop=1;jettySize=auto;html=1;strokeWidth=3;fontSize=24;" parent="1" source="6PqzBiFGWo0K5L1rPENs-40" target="6PqzBiFGWo0K5L1rPENs-49" edge="1">
          <mxGeometry relative="1" as="geometry" />
        </mxCell>
        <mxCell id="6PqzBiFGWo0K5L1rPENs-40" value="&lt;font color=&quot;#ff0000&quot;&gt;5&lt;/font&gt;" style="ellipse;whiteSpace=wrap;html=1;aspect=fixed;fontSize=24;" parent="1" vertex="1">
          <mxGeometry x="590" y="320" width="60" height="60" as="geometry" />
        </mxCell>
        <mxCell id="6PqzBiFGWo0K5L1rPENs-41" style="rounded=0;orthogonalLoop=1;jettySize=auto;html=1;strokeWidth=3;fontSize=24;" parent="1" source="6PqzBiFGWo0K5L1rPENs-43" target="6PqzBiFGWo0K5L1rPENs-44" edge="1">
          <mxGeometry relative="1" as="geometry" />
        </mxCell>
        <mxCell id="6PqzBiFGWo0K5L1rPENs-42" style="rounded=0;orthogonalLoop=1;jettySize=auto;html=1;strokeWidth=3;fontSize=24;" parent="1" source="6PqzBiFGWo0K5L1rPENs-43" target="6PqzBiFGWo0K5L1rPENs-46" edge="1">
          <mxGeometry relative="1" as="geometry" />
        </mxCell>
        <mxCell id="6PqzBiFGWo0K5L1rPENs-44" value="1" style="ellipse;whiteSpace=wrap;html=1;aspect=fixed;fontSize=24;" parent="1" vertex="1">
          <mxGeometry x="370" y="480" width="60" height="60" as="geometry" />
        </mxCell>
        <mxCell id="6PqzBiFGWo0K5L1rPENs-46" value="4" style="ellipse;whiteSpace=wrap;html=1;aspect=fixed;fontSize=24;" parent="1" vertex="1">
          <mxGeometry x="530" y="480" width="60" height="60" as="geometry" />
        </mxCell>
        <mxCell id="6PqzBiFGWo0K5L1rPENs-47" value="6" style="ellipse;whiteSpace=wrap;html=1;aspect=fixed;fontSize=24;" parent="1" vertex="1">
          <mxGeometry x="640" y="480" width="60" height="60" as="geometry" />
        </mxCell>
        <mxCell id="6PqzBiFGWo0K5L1rPENs-48" style="rounded=0;orthogonalLoop=1;jettySize=auto;html=1;strokeWidth=3;fontSize=24;" parent="1" source="6PqzBiFGWo0K5L1rPENs-49" target="6PqzBiFGWo0K5L1rPENs-47" edge="1">
          <mxGeometry relative="1" as="geometry" />
        </mxCell>
        <mxCell id="6PqzBiFGWo0K5L1rPENs-49" value="7" style="ellipse;whiteSpace=wrap;html=1;aspect=fixed;fontSize=24;" parent="1" vertex="1">
          <mxGeometry x="670" y="400" width="60" height="60" as="geometry" />
        </mxCell>
        <mxCell id="6PqzBiFGWo0K5L1rPENs-54" value="Two Subtrees" style="text;html=1;strokeColor=none;fillColor=none;align=center;verticalAlign=middle;whiteSpace=wrap;rounded=0;fontSize=24;" parent="1" vertex="1">
          <mxGeometry x="240" y="320" width="150" height="30" as="geometry" />
        </mxCell>
        <mxCell id="6PqzBiFGWo0K5L1rPENs-55" value="" style="endArrow=none;dashed=1;html=1;dashPattern=1 3;strokeWidth=2;rounded=0;" parent="1" edge="1">
          <mxGeometry width="50" height="50" relative="1" as="geometry">
            <mxPoint x="770" y="280" as="sourcePoint" />
            <mxPoint x="980" y="280" as="targetPoint" />
          </mxGeometry>
        </mxCell>
        <mxCell id="6PqzBiFGWo0K5L1rPENs-56" value="" style="endArrow=none;dashed=1;html=1;dashPattern=1 3;strokeWidth=2;rounded=0;" parent="1" edge="1">
          <mxGeometry width="50" height="50" relative="1" as="geometry">
            <mxPoint x="870" y="80" as="sourcePoint" />
            <mxPoint x="980" y="280" as="targetPoint" />
          </mxGeometry>
        </mxCell>
        <mxCell id="6PqzBiFGWo0K5L1rPENs-57" value="" style="endArrow=none;dashed=1;html=1;dashPattern=1 3;strokeWidth=2;rounded=0;" parent="1" edge="1">
          <mxGeometry width="50" height="50" relative="1" as="geometry">
            <mxPoint x="870" y="80" as="sourcePoint" />
            <mxPoint x="770" y="280" as="targetPoint" />
          </mxGeometry>
        </mxCell>
        <mxCell id="6PqzBiFGWo0K5L1rPENs-61" value="" style="endArrow=none;dashed=1;html=1;dashPattern=1 3;strokeWidth=2;rounded=0;" parent="1" edge="1">
          <mxGeometry width="50" height="50" relative="1" as="geometry">
            <mxPoint x="280" y="640" as="sourcePoint" />
            <mxPoint x="690" y="640" as="targetPoint" />
          </mxGeometry>
        </mxCell>
        <mxCell id="6PqzBiFGWo0K5L1rPENs-65" style="rounded=0;orthogonalLoop=1;jettySize=auto;html=1;strokeWidth=3;fontSize=24;" parent="1" source="6PqzBiFGWo0K5L1rPENs-66" target="6PqzBiFGWo0K5L1rPENs-74" edge="1">
          <mxGeometry relative="1" as="geometry" />
        </mxCell>
        <mxCell id="6PqzBiFGWo0K5L1rPENs-66" value="&lt;font color=&quot;#ff0000&quot;&gt;4&lt;/font&gt;" style="ellipse;whiteSpace=wrap;html=1;aspect=fixed;fontSize=24;" parent="1" vertex="1">
          <mxGeometry x="1080" y="320" width="60" height="60" as="geometry" />
        </mxCell>
        <mxCell id="6PqzBiFGWo0K5L1rPENs-72" value="6" style="ellipse;whiteSpace=wrap;html=1;aspect=fixed;fontSize=24;" parent="1" vertex="1">
          <mxGeometry x="1130" y="480" width="60" height="60" as="geometry" />
        </mxCell>
        <mxCell id="6PqzBiFGWo0K5L1rPENs-73" style="rounded=0;orthogonalLoop=1;jettySize=auto;html=1;strokeWidth=3;fontSize=24;" parent="1" source="6PqzBiFGWo0K5L1rPENs-74" target="6PqzBiFGWo0K5L1rPENs-72" edge="1">
          <mxGeometry relative="1" as="geometry" />
        </mxCell>
        <mxCell id="6PqzBiFGWo0K5L1rPENs-74" value="7" style="ellipse;whiteSpace=wrap;html=1;aspect=fixed;fontSize=24;" parent="1" vertex="1">
          <mxGeometry x="1160" y="400" width="60" height="60" as="geometry" />
        </mxCell>
        <mxCell id="6PqzBiFGWo0K5L1rPENs-78" value="" style="shape=flexArrow;endArrow=classic;html=1;rounded=0;" parent="1" edge="1">
          <mxGeometry width="50" height="50" relative="1" as="geometry">
            <mxPoint x="770" y="429.5" as="sourcePoint" />
            <mxPoint x="850" y="429.5" as="targetPoint" />
          </mxGeometry>
        </mxCell>
        <mxCell id="6PqzBiFGWo0K5L1rPENs-80" style="rounded=0;orthogonalLoop=1;jettySize=auto;html=1;strokeColor=#000000;strokeWidth=3;" parent="1" source="6PqzBiFGWo0K5L1rPENs-46" target="6PqzBiFGWo0K5L1rPENs-81" edge="1">
          <mxGeometry relative="1" as="geometry">
            <mxPoint x="535" y="540" as="sourcePoint" />
          </mxGeometry>
        </mxCell>
        <mxCell id="6PqzBiFGWo0K5L1rPENs-81" value="&lt;font&gt;3&lt;/font&gt;" style="ellipse;whiteSpace=wrap;html=1;aspect=fixed;fontSize=24;fontColor=#000000;strokeColor=#000000;" parent="1" vertex="1">
          <mxGeometry x="480" y="569" width="60" height="60" as="geometry" />
        </mxCell>
        <mxCell id="6PqzBiFGWo0K5L1rPENs-83" style="rounded=0;orthogonalLoop=1;jettySize=auto;html=1;strokeWidth=3;fontSize=24;" parent="1" source="6PqzBiFGWo0K5L1rPENs-66" target="6PqzBiFGWo0K5L1rPENs-87" edge="1">
          <mxGeometry relative="1" as="geometry">
            <mxPoint x="1068" y="370" as="sourcePoint" />
          </mxGeometry>
        </mxCell>
        <mxCell id="6PqzBiFGWo0K5L1rPENs-85" style="rounded=0;orthogonalLoop=1;jettySize=auto;html=1;strokeWidth=3;fontSize=24;" parent="1" source="6PqzBiFGWo0K5L1rPENs-87" target="6PqzBiFGWo0K5L1rPENs-88" edge="1">
          <mxGeometry relative="1" as="geometry" />
        </mxCell>
        <mxCell id="6PqzBiFGWo0K5L1rPENs-86" style="rounded=0;orthogonalLoop=1;jettySize=auto;html=1;strokeWidth=3;fontSize=24;dashed=1;strokeColor=#FF0000;" parent="1" source="6PqzBiFGWo0K5L1rPENs-87" target="6PqzBiFGWo0K5L1rPENs-89" edge="1">
          <mxGeometry relative="1" as="geometry" />
        </mxCell>
        <mxCell id="6PqzBiFGWo0K5L1rPENs-98" style="rounded=0;orthogonalLoop=1;jettySize=auto;html=1;strokeWidth=3;strokeColor=#FF0000;" parent="1" source="6PqzBiFGWo0K5L1rPENs-87" target="6PqzBiFGWo0K5L1rPENs-96" edge="1">
          <mxGeometry relative="1" as="geometry" />
        </mxCell>
        <mxCell id="6PqzBiFGWo0K5L1rPENs-87" value="2" style="ellipse;whiteSpace=wrap;html=1;aspect=fixed;fontSize=24;" parent="1" vertex="1">
          <mxGeometry x="920" y="400" width="60" height="60" as="geometry" />
        </mxCell>
        <mxCell id="6PqzBiFGWo0K5L1rPENs-88" value="1" style="ellipse;whiteSpace=wrap;html=1;aspect=fixed;fontSize=24;" parent="1" vertex="1">
          <mxGeometry x="870" y="480" width="60" height="60" as="geometry" />
        </mxCell>
        <mxCell id="6PqzBiFGWo0K5L1rPENs-89" value="4" style="ellipse;whiteSpace=wrap;html=1;aspect=fixed;fontSize=24;dashed=1;strokeColor=#FF0000;" parent="1" vertex="1">
          <mxGeometry x="1020" y="480" width="60" height="60" as="geometry" />
        </mxCell>
        <mxCell id="6PqzBiFGWo0K5L1rPENs-92" value="" style="endArrow=none;dashed=1;html=1;dashPattern=1 3;strokeWidth=2;rounded=0;" parent="1" edge="1">
          <mxGeometry width="50" height="50" relative="1" as="geometry">
            <mxPoint x="790" y="640" as="sourcePoint" />
            <mxPoint x="1200" y="640" as="targetPoint" />
          </mxGeometry>
        </mxCell>
        <mxCell id="6PqzBiFGWo0K5L1rPENs-94" value="" style="endArrow=none;dashed=1;html=1;dashPattern=1 3;strokeWidth=2;rounded=0;" parent="1" edge="1">
          <mxGeometry width="50" height="50" relative="1" as="geometry">
            <mxPoint x="950" y="350" as="sourcePoint" />
            <mxPoint x="790" y="640" as="targetPoint" />
          </mxGeometry>
        </mxCell>
        <mxCell id="6PqzBiFGWo0K5L1rPENs-95" style="rounded=0;orthogonalLoop=1;jettySize=auto;html=1;strokeColor=#FF0000;strokeWidth=3;dashed=1;" parent="1" source="6PqzBiFGWo0K5L1rPENs-89" target="6PqzBiFGWo0K5L1rPENs-96" edge="1">
          <mxGeometry relative="1" as="geometry">
            <mxPoint x="1035" y="540" as="sourcePoint" />
          </mxGeometry>
        </mxCell>
        <mxCell id="6PqzBiFGWo0K5L1rPENs-96" value="&lt;font&gt;3&lt;/font&gt;" style="ellipse;whiteSpace=wrap;html=1;aspect=fixed;fontSize=24;fontColor=#000000;strokeColor=#000000;" parent="1" vertex="1">
          <mxGeometry x="970" y="569" width="60" height="60" as="geometry" />
        </mxCell>
        <mxCell id="6PqzBiFGWo0K5L1rPENs-97" value="" style="curved=1;endArrow=classic;html=1;rounded=0;strokeWidth=3;strokeColor=#FF0000;" parent="1" source="6PqzBiFGWo0K5L1rPENs-89" target="6PqzBiFGWo0K5L1rPENs-66" edge="1">
          <mxGeometry width="50" height="50" relative="1" as="geometry">
            <mxPoint x="1070" y="480" as="sourcePoint" />
            <mxPoint x="1120" y="430" as="targetPoint" />
            <Array as="points">
              <mxPoint x="1100" y="470" />
              <mxPoint x="1070" y="430" />
            </Array>
          </mxGeometry>
        </mxCell>
        <mxCell id="6PqzBiFGWo0K5L1rPENs-43" value="2" style="ellipse;whiteSpace=wrap;html=1;aspect=fixed;fontSize=24;" parent="1" vertex="1">
          <mxGeometry x="430" y="400" width="60" height="60" as="geometry" />
        </mxCell>
        <mxCell id="hFfXq8j07RGvD7xqYkxw-2" value="" style="endArrow=none;dashed=1;html=1;dashPattern=1 3;strokeWidth=2;rounded=0;" parent="1" edge="1">
          <mxGeometry width="50" height="50" relative="1" as="geometry">
            <mxPoint x="280" y="640" as="sourcePoint" />
            <mxPoint x="460" y="350" as="targetPoint" />
          </mxGeometry>
        </mxCell>
      </root>
    </mxGraphModel>
  </diagram>
</mxfile>
